<mxfile host="app.diagrams.net" modified="2023-05-19T15:02:47.241Z" agent="Mozilla/5.0 (Windows NT 10.0; Win64; x64) AppleWebKit/537.36 (KHTML, like Gecko) Chrome/102.0.0.0 Safari/537.36" etag="0hO8d_4_o9lbN65vQ10J" version="21.3.2" type="github">
  <diagram name="Page-1" id="b520641d-4fe3-3701-9064-5fc419738815">
    <mxGraphModel dx="956" dy="509" grid="1" gridSize="10" guides="1" tooltips="1" connect="1" arrows="1" fold="1" page="1" pageScale="1" pageWidth="1100" pageHeight="850" background="none" math="0" shadow="0">
      <root>
        <mxCell id="0" />
        <mxCell id="1" parent="0" />
        <mxCell id="21ea969265ad0168-6" value="&lt;b style=&quot;background-color: rgb(255, 244, 195);&quot;&gt;&lt;font color=&quot;#6600cc&quot;&gt;User &lt;/font&gt;&lt;/b&gt;" style="swimlane;html=1;fontStyle=0;childLayout=stackLayout;horizontal=1;startSize=26;fillColor=#6a00ff;horizontalStack=0;resizeParent=1;resizeLast=0;collapsible=1;marginBottom=0;swimlaneFillColor=#ffffff;align=center;rounded=1;shadow=0;comic=0;labelBackgroundColor=none;strokeWidth=1;fontFamily=Verdana;fontSize=12;fontColor=#ffffff;strokeColor=#3700CC;" parent="1" vertex="1">
          <mxGeometry x="130" y="74" width="162.5" height="156" as="geometry">
            <mxRectangle x="160" y="74" width="70" height="30" as="alternateBounds" />
          </mxGeometry>
        </mxCell>
        <mxCell id="21ea969265ad0168-7" value="&lt;div style=&quot;text-align: right;&quot;&gt;&lt;font style=&quot;background-color: initial;&quot; color=&quot;#99004d&quot;&gt;user_id&lt;span style=&quot;white-space: pre;&quot;&gt;	&lt;/span&gt;&lt;span style=&quot;white-space: pre;&quot;&gt;	&lt;/span&gt;&lt;span style=&quot;white-space: pre;&quot;&gt;	&lt;/span&gt;&lt;span style=&quot;white-space: pre;&quot;&gt;	&lt;/span&gt;&lt;/font&gt;&lt;font style=&quot;background-color: rgb(255, 255, 153);&quot; color=&quot;#cc0000&quot;&gt;int&lt;/font&gt;&lt;/div&gt;" style="text;html=1;strokeColor=none;fillColor=none;spacingLeft=4;spacingRight=4;whiteSpace=wrap;overflow=hidden;rotatable=0;points=[[0,0.5],[1,0.5]];portConstraint=eastwest;" parent="21ea969265ad0168-6" vertex="1">
          <mxGeometry y="26" width="162.5" height="26" as="geometry" />
        </mxCell>
        <mxCell id="21ea969265ad0168-8" value="&lt;font color=&quot;#99004d&quot;&gt;username&amp;nbsp;&lt;/font&gt;&lt;span style=&quot;color: rgb(153, 0, 77); white-space: pre;&quot;&gt;	&lt;/span&gt;&lt;span style=&quot;color: rgb(153, 0, 77); white-space: pre;&quot;&gt;	&lt;/span&gt;&lt;font color=&quot;#cc0000&quot;&gt;&lt;span style=&quot;background-color: rgb(255, 255, 153);&quot;&gt;varchar&lt;/span&gt;&lt;/font&gt;" style="text;html=1;strokeColor=none;fillColor=none;spacingLeft=4;spacingRight=4;whiteSpace=wrap;overflow=hidden;rotatable=0;points=[[0,0.5],[1,0.5]];portConstraint=eastwest;" parent="21ea969265ad0168-6" vertex="1">
          <mxGeometry y="52" width="162.5" height="26" as="geometry" />
        </mxCell>
        <mxCell id="21ea969265ad0168-9" value="&lt;font color=&quot;#99004d&quot;&gt;email &lt;span style=&quot;white-space: pre;&quot;&gt;	&lt;/span&gt;&lt;span style=&quot;white-space: pre;&quot;&gt;	&lt;/span&gt;&lt;span style=&quot;white-space: pre;&quot;&gt;	&lt;/span&gt;&lt;/font&gt;&lt;font style=&quot;background-color: rgb(255, 255, 153);&quot; color=&quot;#cc0000&quot;&gt;varchar&lt;/font&gt;" style="text;html=1;strokeColor=none;fillColor=none;spacingLeft=4;spacingRight=4;whiteSpace=wrap;overflow=hidden;rotatable=0;points=[[0,0.5],[1,0.5]];portConstraint=eastwest;" parent="21ea969265ad0168-6" vertex="1">
          <mxGeometry y="78" width="162.5" height="26" as="geometry" />
        </mxCell>
        <mxCell id="WIoTZI1E3ftE0DfnmjJr-2" value="&lt;sup&gt;&lt;font style=&quot;font-size: 12px;&quot;&gt;&lt;font color=&quot;#99004d&quot;&gt;password &lt;span style=&quot;white-space: pre;&quot;&gt;	&lt;/span&gt;&lt;span style=&quot;white-space: pre;&quot;&gt;	&lt;/span&gt;&lt;/font&gt;&lt;span style=&quot;background-color: rgb(255, 255, 153);&quot;&gt;&lt;font color=&quot;#cc0000&quot;&gt;varchar&lt;/font&gt;&lt;/span&gt;&lt;/font&gt;&lt;/sup&gt;" style="text;html=1;strokeColor=none;fillColor=none;spacingLeft=4;spacingRight=4;whiteSpace=wrap;overflow=hidden;rotatable=0;points=[[0,0.5],[1,0.5]];portConstraint=eastwest;" vertex="1" parent="21ea969265ad0168-6">
          <mxGeometry y="104" width="162.5" height="26" as="geometry" />
        </mxCell>
        <mxCell id="WIoTZI1E3ftE0DfnmjJr-3" value="&lt;font color=&quot;#99004d&quot;&gt;user_type &lt;span style=&quot;white-space: pre;&quot;&gt;	&lt;/span&gt;&lt;span style=&quot;white-space: pre;&quot;&gt;	&lt;/span&gt;&lt;/font&gt;&lt;span style=&quot;background-color: rgb(255, 255, 153);&quot;&gt;&lt;font color=&quot;#cc0000&quot;&gt;varchar&lt;/font&gt;&lt;/span&gt;" style="text;html=1;strokeColor=none;fillColor=none;spacingLeft=4;spacingRight=4;whiteSpace=wrap;overflow=hidden;rotatable=0;points=[[0,0.5],[1,0.5]];portConstraint=eastwest;" vertex="1" parent="21ea969265ad0168-6">
          <mxGeometry y="130" width="162.5" height="26" as="geometry" />
        </mxCell>
        <mxCell id="21ea969265ad0168-10" value="&lt;b style=&quot;background-color: rgb(240, 240, 240);&quot;&gt;&lt;font color=&quot;#d80073&quot;&gt;Reservation&lt;/font&gt;&lt;/b&gt;" style="swimlane;html=1;fontStyle=0;childLayout=stackLayout;horizontal=1;startSize=26;fillColor=#D80073;horizontalStack=0;resizeParent=1;resizeLast=0;collapsible=1;marginBottom=0;swimlaneFillColor=#ffffff;align=center;rounded=1;shadow=0;comic=0;labelBackgroundColor=none;strokeWidth=1;fontFamily=Verdana;fontSize=12;fontColor=#ffffff;strokeColor=#A50040;" parent="1" vertex="1">
          <mxGeometry x="560" y="74" width="160" height="220" as="geometry" />
        </mxCell>
        <mxCell id="21ea969265ad0168-11" value="&lt;font color=&quot;#99004d&quot;&gt;reservation_id &lt;/font&gt;&lt;span style=&quot;color: rgb(153, 0, 77); white-space: pre;&quot;&gt;	&lt;/span&gt;&lt;span style=&quot;color: rgb(153, 0, 77); white-space: pre;&quot;&gt;	&lt;/span&gt;&lt;font style=&quot;background-color: rgb(255, 255, 153);&quot; color=&quot;#cc0000&quot;&gt;int&lt;/font&gt;" style="text;html=1;strokeColor=none;fillColor=none;spacingLeft=4;spacingRight=4;whiteSpace=wrap;overflow=hidden;rotatable=0;points=[[0,0.5],[1,0.5]];portConstraint=eastwest;" parent="21ea969265ad0168-10" vertex="1">
          <mxGeometry y="26" width="160" height="26" as="geometry" />
        </mxCell>
        <mxCell id="WIoTZI1E3ftE0DfnmjJr-33" value="&lt;font color=&quot;#99004d&quot;&gt;guest_id &lt;span style=&quot;white-space: pre;&quot;&gt;	&lt;/span&gt;&lt;span style=&quot;white-space: pre;&quot;&gt;	&lt;/span&gt;&lt;span style=&quot;white-space: pre;&quot;&gt;	&lt;/span&gt;&lt;span style=&quot;white-space: pre;&quot;&gt;	&lt;/span&gt;&lt;/font&gt;&lt;font style=&quot;background-color: rgb(255, 255, 153);&quot; color=&quot;#cc0000&quot;&gt;int&lt;/font&gt;" style="text;html=1;strokeColor=none;fillColor=none;spacingLeft=4;spacingRight=4;whiteSpace=wrap;overflow=hidden;rotatable=0;points=[[0,0.5],[1,0.5]];portConstraint=eastwest;" vertex="1" parent="21ea969265ad0168-10">
          <mxGeometry y="52" width="160" height="26" as="geometry" />
        </mxCell>
        <mxCell id="21ea969265ad0168-12" value="&lt;font color=&quot;#99004d&quot;&gt;guest_id &lt;span style=&quot;white-space: pre;&quot;&gt;	&lt;/span&gt;&lt;span style=&quot;white-space: pre;&quot;&gt;	&lt;/span&gt;&lt;span style=&quot;white-space: pre;&quot;&gt;	&lt;/span&gt;&lt;span style=&quot;white-space: pre;&quot;&gt;	&lt;/span&gt;&lt;/font&gt;&lt;font style=&quot;background-color: rgb(255, 255, 153);&quot; color=&quot;#cc0000&quot;&gt;int&lt;/font&gt;" style="text;html=1;strokeColor=none;fillColor=none;spacingLeft=4;spacingRight=4;whiteSpace=wrap;overflow=hidden;rotatable=0;points=[[0,0.5],[1,0.5]];portConstraint=eastwest;" parent="21ea969265ad0168-10" vertex="1">
          <mxGeometry y="78" width="160" height="26" as="geometry" />
        </mxCell>
        <mxCell id="21ea969265ad0168-52" value="&lt;font color=&quot;#99004d&quot;&gt;room_id &lt;span style=&quot;white-space: pre;&quot;&gt;	&lt;/span&gt;&lt;span style=&quot;white-space: pre;&quot;&gt;	&lt;/span&gt;&lt;span style=&quot;white-space: pre;&quot;&gt;	&lt;/span&gt;&lt;span style=&quot;white-space: pre;&quot;&gt;	&lt;/span&gt;&lt;/font&gt;&lt;font style=&quot;background-color: rgb(255, 255, 153);&quot; color=&quot;#cc0000&quot;&gt;int&lt;/font&gt;" style="text;html=1;strokeColor=none;fillColor=none;spacingLeft=4;spacingRight=4;whiteSpace=wrap;overflow=hidden;rotatable=0;points=[[0,0.5],[1,0.5]];portConstraint=eastwest;" parent="21ea969265ad0168-10" vertex="1">
          <mxGeometry y="104" width="160" height="26" as="geometry" />
        </mxCell>
        <mxCell id="21ea969265ad0168-13" value="&lt;font color=&quot;#99004d&quot;&gt;check_in_date &lt;span style=&quot;white-space: pre;&quot;&gt;	&lt;/span&gt;&amp;nbsp; &amp;nbsp; &amp;nbsp;&lt;/font&gt;&lt;font style=&quot;background-color: rgb(255, 255, 153);&quot; color=&quot;#cc0000&quot;&gt;date&lt;/font&gt;" style="text;html=1;strokeColor=none;fillColor=none;spacingLeft=4;spacingRight=4;whiteSpace=wrap;overflow=hidden;rotatable=0;points=[[0,0.5],[1,0.5]];portConstraint=eastwest;" parent="21ea969265ad0168-10" vertex="1">
          <mxGeometry y="130" width="160" height="26" as="geometry" />
        </mxCell>
        <mxCell id="WIoTZI1E3ftE0DfnmjJr-23" value="&lt;font color=&quot;#99004d&quot;&gt;check_out_date &lt;span style=&quot;white-space: pre;&quot;&gt;	&lt;/span&gt;&amp;nbsp; &amp;nbsp; &amp;nbsp;&lt;/font&gt;&lt;font style=&quot;background-color: rgb(255, 255, 153);&quot; color=&quot;#cc0000&quot;&gt;date&lt;/font&gt;" style="text;html=1;strokeColor=none;fillColor=none;spacingLeft=4;spacingRight=4;whiteSpace=wrap;overflow=hidden;rotatable=0;points=[[0,0.5],[1,0.5]];portConstraint=eastwest;" vertex="1" parent="21ea969265ad0168-10">
          <mxGeometry y="156" width="160" height="26" as="geometry" />
        </mxCell>
        <mxCell id="WIoTZI1E3ftE0DfnmjJr-24" value="&lt;font color=&quot;#99004d&quot;&gt;payment_status&amp;nbsp;&lt;span style=&quot;white-space: pre;&quot;&gt;	&lt;/span&gt;&amp;nbsp;&lt;/font&gt;&lt;font style=&quot;background-color: rgb(255, 255, 153);&quot; color=&quot;#cc0000&quot;&gt;varchar&lt;/font&gt;" style="text;html=1;strokeColor=none;fillColor=none;spacingLeft=4;spacingRight=4;whiteSpace=wrap;overflow=hidden;rotatable=0;points=[[0,0.5],[1,0.5]];portConstraint=eastwest;" vertex="1" parent="21ea969265ad0168-10">
          <mxGeometry y="182" width="160" height="38" as="geometry" />
        </mxCell>
        <mxCell id="21ea969265ad0168-35" style="edgeStyle=orthogonalEdgeStyle;html=1;labelBackgroundColor=none;startFill=0;endFill=1;fontFamily=Verdana;fontSize=12;shape=link;dashed=1;dashPattern=12 12;fillColor=#d5e8d4;gradientColor=#97d077;strokeColor=#82b366;" parent="1" source="WIoTZI1E3ftE0DfnmjJr-7" target="21ea969265ad0168-7" edge="1">
          <mxGeometry relative="1" as="geometry">
            <Array as="points">
              <mxPoint x="448" y="350" />
              <mxPoint x="448" y="110" />
            </Array>
            <mxPoint x="229.9999999999999" y="320" as="sourcePoint" />
          </mxGeometry>
        </mxCell>
        <mxCell id="WIoTZI1E3ftE0DfnmjJr-5" value="&lt;font color=&quot;#6600cc&quot;&gt;&lt;span style=&quot;background-color: rgb(255, 244, 195);&quot;&gt;&lt;b&gt;Room&lt;/b&gt;&lt;/span&gt;&lt;/font&gt;" style="swimlane;html=1;fontStyle=0;childLayout=stackLayout;horizontal=1;startSize=26;fillColor=#6a00ff;horizontalStack=0;resizeParent=1;resizeLast=0;collapsible=1;marginBottom=0;swimlaneFillColor=#ffffff;align=center;rounded=1;shadow=0;comic=0;labelBackgroundColor=none;strokeWidth=1;fontFamily=Verdana;fontSize=12;fontColor=#ffffff;strokeColor=#3700CC;" vertex="1" parent="1">
          <mxGeometry x="40" y="280" width="190" height="240" as="geometry">
            <mxRectangle x="160" y="74" width="70" height="30" as="alternateBounds" />
          </mxGeometry>
        </mxCell>
        <mxCell id="WIoTZI1E3ftE0DfnmjJr-6" value="&lt;div style=&quot;text-align: right;&quot;&gt;&lt;font style=&quot;background-color: initial;&quot; color=&quot;#99004d&quot;&gt;room_id&lt;span style=&quot;white-space: pre;&quot;&gt;	&lt;/span&gt;&lt;span style=&quot;white-space: pre;&quot;&gt;	&lt;/span&gt;&lt;span style=&quot;white-space: pre;&quot;&gt;	&lt;/span&gt;&lt;span style=&quot;white-space: pre;&quot;&gt;	&lt;span style=&quot;white-space: pre;&quot;&gt;	&lt;/span&gt;&lt;/span&gt;&lt;/font&gt;&lt;font style=&quot;background-color: rgb(255, 255, 153);&quot; color=&quot;#cc0000&quot;&gt;int&lt;/font&gt;&lt;/div&gt;" style="text;html=1;strokeColor=none;fillColor=none;spacingLeft=4;spacingRight=4;whiteSpace=wrap;overflow=hidden;rotatable=0;points=[[0,0.5],[1,0.5]];portConstraint=eastwest;" vertex="1" parent="WIoTZI1E3ftE0DfnmjJr-5">
          <mxGeometry y="26" width="190" height="26" as="geometry" />
        </mxCell>
        <mxCell id="WIoTZI1E3ftE0DfnmjJr-7" value="&lt;font color=&quot;#99004d&quot;&gt;host_id&amp;nbsp;&lt;/font&gt;&lt;span style=&quot;color: rgb(153, 0, 77); white-space: pre;&quot;&gt;	&lt;/span&gt;&lt;span style=&quot;white-space: pre;&quot;&gt;&lt;font color=&quot;#99004d&quot;&gt;	&lt;/font&gt;&lt;span style=&quot;color: rgb(153, 0, 77); white-space: pre;&quot;&gt;	&lt;span style=&quot;white-space: pre;&quot;&gt;	&lt;/span&gt;&lt;span style=&quot;white-space: pre;&quot;&gt;	&lt;/span&gt;&lt;/span&gt;&lt;font color=&quot;#cc0000&quot;&gt;&lt;span style=&quot;background-color: rgb(255, 255, 153);&quot;&gt;int&lt;/span&gt;&lt;/font&gt;&lt;/span&gt;" style="text;html=1;strokeColor=none;fillColor=none;spacingLeft=4;spacingRight=4;whiteSpace=wrap;overflow=hidden;rotatable=0;points=[[0,0.5],[1,0.5]];portConstraint=eastwest;" vertex="1" parent="WIoTZI1E3ftE0DfnmjJr-5">
          <mxGeometry y="52" width="190" height="26" as="geometry" />
        </mxCell>
        <mxCell id="WIoTZI1E3ftE0DfnmjJr-8" value="&lt;font color=&quot;#99004d&quot;&gt; room_name&lt;span style=&quot;white-space: pre;&quot;&gt;&amp;nbsp;&lt;span style=&quot;white-space: pre;&quot;&gt;	&lt;/span&gt;&lt;span style=&quot;white-space: pre;&quot;&gt;	&lt;/span&gt;&lt;span style=&quot;white-space: pre;&quot;&gt;	&lt;/span&gt;&lt;/span&gt;&lt;/font&gt;&lt;font style=&quot;background-color: rgb(255, 255, 153);&quot; color=&quot;#cc0000&quot;&gt;varchar&lt;/font&gt;" style="text;html=1;strokeColor=none;fillColor=none;spacingLeft=4;spacingRight=4;whiteSpace=wrap;overflow=hidden;rotatable=0;points=[[0,0.5],[1,0.5]];portConstraint=eastwest;" vertex="1" parent="WIoTZI1E3ftE0DfnmjJr-5">
          <mxGeometry y="78" width="190" height="26" as="geometry" />
        </mxCell>
        <mxCell id="WIoTZI1E3ftE0DfnmjJr-9" value="&lt;div style=&quot;text-align: center;&quot;&gt;&lt;sup style=&quot;&quot;&gt;&lt;font style=&quot;font-size: 12px;&quot;&gt;&lt;font color=&quot;#99004d&quot; style=&quot;background-color: rgb(255, 255, 255);&quot;&gt;description&amp;nbsp;&lt;span style=&quot;white-space: pre;&quot;&gt;	&lt;/span&gt;&lt;span style=&quot;white-space: pre;&quot;&gt;	&lt;/span&gt;&lt;span style=&quot;white-space: pre;&quot;&gt;	&lt;/span&gt;&amp;nbsp; &amp;nbsp; &amp;nbsp;&amp;nbsp;&lt;/font&gt;&lt;font style=&quot;background-color: rgb(255, 255, 153);&quot; color=&quot;#cc0000&quot;&gt;text&lt;/font&gt;&lt;/font&gt;&lt;/sup&gt;&lt;/div&gt;" style="text;html=1;strokeColor=none;fillColor=none;spacingLeft=4;spacingRight=4;whiteSpace=wrap;overflow=hidden;rotatable=0;points=[[0,0.5],[1,0.5]];portConstraint=eastwest;" vertex="1" parent="WIoTZI1E3ftE0DfnmjJr-5">
          <mxGeometry y="104" width="190" height="26" as="geometry" />
        </mxCell>
        <mxCell id="WIoTZI1E3ftE0DfnmjJr-10" value="&lt;font color=&quot;#99004d&quot;&gt;max_residents &amp;nbsp;&lt;span style=&quot;white-space: pre;&quot;&gt;&amp;nbsp;&amp;nbsp;&amp;nbsp;&amp;nbsp;&lt;/span&gt;&lt;/font&gt;&lt;span style=&quot;&quot;&gt;&lt;font color=&quot;#99004d&quot;&gt;&lt;span style=&quot;white-space: pre;&quot;&gt;&amp;nbsp;&amp;nbsp;&amp;nbsp;&amp;nbsp;&lt;/span&gt;&lt;span style=&quot;white-space: pre;&quot;&gt;&amp;nbsp;&amp;nbsp;&amp;nbsp;&amp;nbsp;&lt;span style=&quot;white-space: pre;&quot;&gt;	&lt;/span&gt;&lt;span style=&quot;white-space: pre;&quot;&gt;	&lt;/span&gt;&lt;/span&gt;&lt;/font&gt;&lt;font color=&quot;#cc0000&quot;&gt;&lt;span style=&quot;background-color: rgb(255, 255, 153);&quot;&gt;int&lt;/span&gt;&lt;/font&gt;&lt;/span&gt;" style="text;html=1;strokeColor=none;fillColor=none;spacingLeft=4;spacingRight=4;whiteSpace=wrap;overflow=hidden;rotatable=0;points=[[0,0.5],[1,0.5]];portConstraint=eastwest;" vertex="1" parent="WIoTZI1E3ftE0DfnmjJr-5">
          <mxGeometry y="130" width="190" height="26" as="geometry" />
        </mxCell>
        <mxCell id="WIoTZI1E3ftE0DfnmjJr-11" value="&lt;font color=&quot;#99004d&quot;&gt;price &amp;nbsp;&lt;/font&gt;&lt;span style=&quot;color: rgb(153, 0, 77);&quot;&gt;&lt;span style=&quot;white-space: pre;&quot;&gt;&amp;nbsp;&amp;nbsp;&amp;nbsp;&amp;nbsp;&lt;/span&gt;&lt;/span&gt;&lt;span style=&quot;color: rgb(153, 0, 77); white-space: pre;&quot;&gt;&amp;nbsp;&amp;nbsp;&amp;nbsp;&amp;nbsp;&lt;/span&gt;&lt;span style=&quot;white-space: pre;&quot;&gt;&lt;font color=&quot;#99004d&quot;&gt;&amp;nbsp;&amp;nbsp;&amp;nbsp;&amp;nbsp;&lt;span style=&quot;white-space: pre;&quot;&gt;	&lt;/span&gt;&lt;span style=&quot;white-space: pre;&quot;&gt;	&lt;/span&gt;&lt;span style=&quot;white-space: pre;&quot;&gt;	&lt;/span&gt;&lt;/font&gt;&lt;font color=&quot;#cc0000&quot;&gt;&lt;span style=&quot;background-color: rgb(255, 255, 153);&quot;&gt;decimal&lt;/span&gt;&lt;/font&gt;&lt;/span&gt;" style="text;html=1;strokeColor=none;fillColor=none;spacingLeft=4;spacingRight=4;whiteSpace=wrap;overflow=hidden;rotatable=0;points=[[0,0.5],[1,0.5]];portConstraint=eastwest;" vertex="1" parent="WIoTZI1E3ftE0DfnmjJr-5">
          <mxGeometry y="156" width="190" height="26" as="geometry" />
        </mxCell>
        <mxCell id="WIoTZI1E3ftE0DfnmjJr-12" value="&lt;font color=&quot;#99004d&quot;&gt;has_ac&amp;nbsp;&lt;/font&gt;&lt;span style=&quot;color: rgb(153, 0, 77);&quot;&gt;&lt;span style=&quot;white-space: pre;&quot;&gt;&amp;nbsp;&amp;nbsp;&amp;nbsp;&amp;nbsp;&lt;/span&gt;&lt;/span&gt;&lt;span style=&quot;color: rgb(153, 0, 77); white-space: pre;&quot;&gt;&amp;nbsp;&amp;nbsp;&amp;nbsp;&amp;nbsp;&lt;/span&gt;&lt;span style=&quot;white-space: pre;&quot;&gt;&lt;font color=&quot;#99004d&quot;&gt;&amp;nbsp;&amp;nbsp;&amp;nbsp;&amp;nbsp;&lt;/font&gt;&lt;span style=&quot;color: rgb(153, 0, 77); white-space: pre;&quot;&gt;	&lt;/span&gt;&lt;span style=&quot;color: rgb(153, 0, 77); white-space: pre;&quot;&gt;	&lt;/span&gt;&lt;font color=&quot;#cc0000&quot;&gt;&lt;span style=&quot;background-color: rgb(255, 255, 153);&quot;&gt;boolean&lt;/span&gt;&lt;/font&gt;&lt;/span&gt;" style="text;html=1;strokeColor=none;fillColor=none;spacingLeft=4;spacingRight=4;whiteSpace=wrap;overflow=hidden;rotatable=0;points=[[0,0.5],[1,0.5]];portConstraint=eastwest;" vertex="1" parent="WIoTZI1E3ftE0DfnmjJr-5">
          <mxGeometry y="182" width="190" height="28" as="geometry" />
        </mxCell>
        <mxCell id="WIoTZI1E3ftE0DfnmjJr-13" value="&lt;font color=&quot;#99004d&quot;&gt;has_refrigerator&amp;nbsp;&lt;/font&gt;&lt;span style=&quot;color: rgb(153, 0, 77);&quot;&gt;&lt;span style=&quot;white-space: pre;&quot;&gt;&amp;nbsp;&amp;nbsp;&amp;nbsp;&amp;nbsp;&lt;/span&gt;&lt;/span&gt;&lt;span style=&quot;color: rgb(153, 0, 77); white-space: pre;&quot;&gt;&amp;nbsp;&amp;nbsp;&amp;nbsp;&amp;nbsp;&lt;/span&gt;&lt;span style=&quot;white-space: pre;&quot;&gt;&lt;font color=&quot;#99004d&quot;&gt;&amp;nbsp;&amp;nbsp;&amp;nbsp;&amp;nbsp;&lt;/font&gt;&lt;span style=&quot;color: rgb(153, 0, 77); white-space: pre;&quot;&gt;	&lt;/span&gt;&lt;font color=&quot;#cc0000&quot;&gt;&lt;span style=&quot;background-color: rgb(255, 255, 153);&quot;&gt;boolean&lt;/span&gt;&lt;/font&gt;&lt;/span&gt;" style="text;html=1;strokeColor=none;fillColor=none;spacingLeft=4;spacingRight=4;whiteSpace=wrap;overflow=hidden;rotatable=0;points=[[0,0.5],[1,0.5]];portConstraint=eastwest;" vertex="1" parent="WIoTZI1E3ftE0DfnmjJr-5">
          <mxGeometry y="210" width="190" height="28" as="geometry" />
        </mxCell>
        <mxCell id="WIoTZI1E3ftE0DfnmjJr-21" style="edgeStyle=orthogonalEdgeStyle;rounded=0;orthogonalLoop=1;jettySize=auto;html=1;entryX=1;entryY=0.5;entryDx=0;entryDy=0;shape=link;dashed=1;fillColor=#d5e8d4;strokeColor=#82b366;gradientColor=#97d077;" edge="1" parent="1" source="21ea969265ad0168-12" target="21ea969265ad0168-7">
          <mxGeometry relative="1" as="geometry">
            <Array as="points">
              <mxPoint x="560" y="139" />
              <mxPoint x="530" y="139" />
              <mxPoint x="530" y="113" />
            </Array>
          </mxGeometry>
        </mxCell>
        <mxCell id="WIoTZI1E3ftE0DfnmjJr-22" style="edgeStyle=orthogonalEdgeStyle;rounded=0;orthogonalLoop=1;jettySize=auto;html=1;dashed=1;dashPattern=1 4;shape=link;fillColor=#e1d5e7;strokeColor=#9673a6;" edge="1" parent="1" source="21ea969265ad0168-52" target="WIoTZI1E3ftE0DfnmjJr-6">
          <mxGeometry relative="1" as="geometry" />
        </mxCell>
        <mxCell id="WIoTZI1E3ftE0DfnmjJr-25" value="&lt;b style=&quot;background-color: rgb(240, 240, 240);&quot;&gt;&lt;font color=&quot;#d80073&quot;&gt;Review&lt;/font&gt;&lt;/b&gt;" style="swimlane;html=1;fontStyle=0;childLayout=stackLayout;horizontal=1;startSize=26;fillColor=#D80073;horizontalStack=0;resizeParent=1;resizeLast=0;collapsible=1;marginBottom=0;swimlaneFillColor=#ffffff;align=center;rounded=1;shadow=0;comic=0;labelBackgroundColor=none;strokeWidth=1;fontFamily=Verdana;fontSize=12;fontColor=#ffffff;strokeColor=#A50040;" vertex="1" parent="1">
          <mxGeometry x="560" y="307" width="160" height="208" as="geometry" />
        </mxCell>
        <mxCell id="WIoTZI1E3ftE0DfnmjJr-26" value="&lt;font color=&quot;#99004d&quot;&gt;review_id &amp;nbsp;&lt;span style=&quot;white-space: pre;&quot;&gt;&amp;nbsp;&amp;nbsp;&amp;nbsp;&amp;nbsp;&lt;/span&gt;&lt;span style=&quot;white-space: pre;&quot;&gt;&amp;nbsp;&amp;nbsp;&amp;nbsp;&amp;nbsp;&lt;span style=&quot;white-space: pre;&quot;&gt;	&lt;/span&gt;&lt;span style=&quot;white-space: pre;&quot;&gt;	&lt;/span&gt;&lt;/span&gt;&lt;/font&gt;&lt;font style=&quot;background-color: rgb(255, 255, 153);&quot; color=&quot;#cc0000&quot;&gt;int&lt;/font&gt;" style="text;html=1;strokeColor=none;fillColor=none;spacingLeft=4;spacingRight=4;whiteSpace=wrap;overflow=hidden;rotatable=0;points=[[0,0.5],[1,0.5]];portConstraint=eastwest;" vertex="1" parent="WIoTZI1E3ftE0DfnmjJr-25">
          <mxGeometry y="26" width="160" height="26" as="geometry" />
        </mxCell>
        <mxCell id="WIoTZI1E3ftE0DfnmjJr-41" value="&lt;font color=&quot;#99004d&quot;&gt;guest_id &amp;nbsp;&lt;span style=&quot;white-space: pre;&quot;&gt;&amp;nbsp;&amp;nbsp;&amp;nbsp;&amp;nbsp;&lt;/span&gt;&lt;span style=&quot;white-space: pre;&quot;&gt;&amp;nbsp;&amp;nbsp;&amp;nbsp;&amp;nbsp;&lt;span style=&quot;white-space: pre;&quot;&gt;	&lt;/span&gt;&lt;span style=&quot;white-space: pre;&quot;&gt;	&lt;/span&gt;&lt;/span&gt;&lt;/font&gt;&lt;font style=&quot;background-color: rgb(255, 255, 153);&quot; color=&quot;#cc0000&quot;&gt;int&lt;/font&gt;" style="text;html=1;strokeColor=none;fillColor=none;spacingLeft=4;spacingRight=4;whiteSpace=wrap;overflow=hidden;rotatable=0;points=[[0,0.5],[1,0.5]];portConstraint=eastwest;" vertex="1" parent="WIoTZI1E3ftE0DfnmjJr-25">
          <mxGeometry y="52" width="160" height="26" as="geometry" />
        </mxCell>
        <mxCell id="WIoTZI1E3ftE0DfnmjJr-42" value="&lt;font color=&quot;#99004d&quot;&gt;host_id &amp;nbsp;&lt;span style=&quot;white-space: pre;&quot;&gt;&amp;nbsp;&amp;nbsp;&amp;nbsp;&amp;nbsp;&lt;/span&gt;&lt;span style=&quot;white-space: pre;&quot;&gt;&amp;nbsp;&amp;nbsp;&amp;nbsp;&amp;nbsp;&lt;span style=&quot;white-space: pre;&quot;&gt;	&lt;/span&gt;&lt;span style=&quot;white-space: pre;&quot;&gt;	&lt;span style=&quot;white-space: pre;&quot;&gt;	&lt;/span&gt;&lt;/span&gt;&lt;/span&gt;&lt;/font&gt;&lt;font style=&quot;background-color: rgb(255, 255, 153);&quot; color=&quot;#cc0000&quot;&gt;int&lt;/font&gt;" style="text;html=1;strokeColor=none;fillColor=none;spacingLeft=4;spacingRight=4;whiteSpace=wrap;overflow=hidden;rotatable=0;points=[[0,0.5],[1,0.5]];portConstraint=eastwest;" vertex="1" parent="WIoTZI1E3ftE0DfnmjJr-25">
          <mxGeometry y="78" width="160" height="26" as="geometry" />
        </mxCell>
        <mxCell id="WIoTZI1E3ftE0DfnmjJr-27" value="&lt;font color=&quot;#99004d&quot;&gt;reservation_id &lt;span style=&quot;&quot;&gt;&lt;span style=&quot;white-space: pre;&quot;&gt;&amp;nbsp;&amp;nbsp;&amp;nbsp;&amp;nbsp;&lt;/span&gt;&lt;/span&gt;&lt;span style=&quot;&quot;&gt;&lt;span style=&quot;white-space: pre;&quot;&gt;&amp;nbsp;&amp;nbsp;&amp;nbsp;&amp;nbsp;&lt;/span&gt;&lt;/span&gt;&lt;span style=&quot;&quot;&gt;&lt;span style=&quot;white-space: pre;&quot;&gt;&amp;nbsp;&amp;nbsp;&amp;nbsp;&amp;nbsp;&lt;/span&gt;&lt;/span&gt;&lt;span style=&quot;&quot;&gt;&lt;span style=&quot;white-space: pre;&quot;&gt;&amp;nbsp;&amp;nbsp;&amp;nbsp;&amp;nbsp;&lt;/span&gt;&lt;/span&gt;&lt;/font&gt;&lt;font style=&quot;background-color: rgb(255, 255, 153);&quot; color=&quot;#cc0000&quot;&gt;int&lt;/font&gt;" style="text;html=1;strokeColor=none;fillColor=none;spacingLeft=4;spacingRight=4;whiteSpace=wrap;overflow=hidden;rotatable=0;points=[[0,0.5],[1,0.5]];portConstraint=eastwest;" vertex="1" parent="WIoTZI1E3ftE0DfnmjJr-25">
          <mxGeometry y="104" width="160" height="26" as="geometry" />
        </mxCell>
        <mxCell id="WIoTZI1E3ftE0DfnmjJr-28" value="&lt;span style=&quot;color: rgb(153, 0, 77);&quot;&gt;&lt;span style=&quot;&quot;&gt;rating&amp;nbsp; &amp;nbsp;&lt;span style=&quot;white-space: pre;&quot;&gt;	&lt;/span&gt;&lt;span style=&quot;white-space: pre;&quot;&gt;	&lt;/span&gt;&lt;span style=&quot;white-space: pre;&quot;&gt;	&lt;/span&gt;&lt;/span&gt;&lt;/span&gt;&lt;font color=&quot;#cc0000&quot;&gt;&lt;span style=&quot;background-color: rgb(255, 255, 153);&quot;&gt;decimal&lt;/span&gt;&lt;/font&gt;" style="text;html=1;strokeColor=none;fillColor=none;spacingLeft=4;spacingRight=4;whiteSpace=wrap;overflow=hidden;rotatable=0;points=[[0,0.5],[1,0.5]];portConstraint=eastwest;" vertex="1" parent="WIoTZI1E3ftE0DfnmjJr-25">
          <mxGeometry y="130" width="160" height="26" as="geometry" />
        </mxCell>
        <mxCell id="WIoTZI1E3ftE0DfnmjJr-40" value="&lt;font color=&quot;#99004d&quot;&gt;comment&amp;nbsp;&amp;nbsp; &amp;nbsp;&lt;span style=&quot;white-space: pre;&quot;&gt;	&lt;/span&gt;&lt;span style=&quot;white-space: pre;&quot;&gt;	&lt;/span&gt;&amp;nbsp; &amp;nbsp; &amp;nbsp; &lt;/font&gt;&lt;font color=&quot;#cc0000&quot;&gt;&lt;span style=&quot;background-color: rgb(255, 255, 153);&quot;&gt;text&lt;/span&gt;&lt;/font&gt;" style="text;html=1;strokeColor=none;fillColor=none;spacingLeft=4;spacingRight=4;whiteSpace=wrap;overflow=hidden;rotatable=0;points=[[0,0.5],[1,0.5]];portConstraint=eastwest;" vertex="1" parent="WIoTZI1E3ftE0DfnmjJr-25">
          <mxGeometry y="156" width="160" height="26" as="geometry" />
        </mxCell>
        <mxCell id="WIoTZI1E3ftE0DfnmjJr-29" value="&lt;font color=&quot;#99004d&quot;&gt;payment_date&amp;nbsp;&lt;span style=&quot;white-space: pre;&quot;&gt;	&lt;/span&gt;&amp;nbsp; &amp;nbsp; &amp;nbsp;&lt;/font&gt;&lt;font style=&quot;background-color: rgb(255, 255, 153);&quot; color=&quot;#cc0000&quot;&gt;date&lt;/font&gt;" style="text;html=1;strokeColor=none;fillColor=none;spacingLeft=4;spacingRight=4;whiteSpace=wrap;overflow=hidden;rotatable=0;points=[[0,0.5],[1,0.5]];portConstraint=eastwest;" vertex="1" parent="WIoTZI1E3ftE0DfnmjJr-25">
          <mxGeometry y="182" width="160" height="26" as="geometry" />
        </mxCell>
        <mxCell id="WIoTZI1E3ftE0DfnmjJr-32" style="edgeStyle=orthogonalEdgeStyle;rounded=0;orthogonalLoop=1;jettySize=auto;html=1;shape=link;dashed=1;dashPattern=8 8;width=4;fillColor=#d80073;strokeColor=#A50040;" edge="1" parent="1" target="21ea969265ad0168-11">
          <mxGeometry relative="1" as="geometry">
            <mxPoint x="560" y="380" as="sourcePoint" />
            <mxPoint x="490" y="130" as="targetPoint" />
            <Array as="points">
              <mxPoint x="560" y="370" />
              <mxPoint x="510" y="370" />
              <mxPoint x="510" y="113" />
            </Array>
          </mxGeometry>
        </mxCell>
        <mxCell id="WIoTZI1E3ftE0DfnmjJr-34" value="&lt;b style=&quot;background-color: rgb(255, 244, 195);&quot;&gt;&lt;font color=&quot;#6600cc&quot;&gt;Payment&lt;/font&gt;&lt;/b&gt;" style="swimlane;html=1;fontStyle=0;childLayout=stackLayout;horizontal=1;startSize=26;fillColor=#6a00ff;horizontalStack=0;resizeParent=1;resizeLast=0;collapsible=1;marginBottom=0;swimlaneFillColor=#ffffff;align=center;rounded=1;shadow=0;comic=0;labelBackgroundColor=none;strokeWidth=1;fontFamily=Verdana;fontSize=12;fontColor=#ffffff;strokeColor=#3700CC;" vertex="1" parent="1">
          <mxGeometry x="330" y="430" width="162.5" height="140" as="geometry">
            <mxRectangle x="160" y="74" width="70" height="30" as="alternateBounds" />
          </mxGeometry>
        </mxCell>
        <mxCell id="WIoTZI1E3ftE0DfnmjJr-35" value="&lt;div style=&quot;text-align: right;&quot;&gt;&lt;font style=&quot;background-color: initial;&quot; color=&quot;#99004d&quot;&gt;payment_id&lt;span style=&quot;white-space: pre;&quot;&gt;	&lt;/span&gt;&lt;span style=&quot;white-space: pre;&quot;&gt;	&lt;/span&gt;&lt;span style=&quot;white-space: pre;&quot;&gt;	&lt;/span&gt;&lt;/font&gt;&lt;font style=&quot;background-color: rgb(255, 255, 153);&quot; color=&quot;#cc0000&quot;&gt;int&lt;/font&gt;&lt;/div&gt;" style="text;html=1;strokeColor=none;fillColor=none;spacingLeft=4;spacingRight=4;whiteSpace=wrap;overflow=hidden;rotatable=0;points=[[0,0.5],[1,0.5]];portConstraint=eastwest;" vertex="1" parent="WIoTZI1E3ftE0DfnmjJr-34">
          <mxGeometry y="26" width="162.5" height="26" as="geometry" />
        </mxCell>
        <mxCell id="WIoTZI1E3ftE0DfnmjJr-36" value="&lt;font color=&quot;#99004d&quot;&gt;reservation_id&amp;nbsp;&lt;/font&gt;&lt;span style=&quot;color: rgb(153, 0, 77); white-space: pre;&quot;&gt;	&lt;span style=&quot;white-space: pre;&quot;&gt;	&lt;/span&gt;&lt;/span&gt;&lt;font color=&quot;#cc0000&quot;&gt;&lt;span style=&quot;background-color: rgb(255, 255, 153);&quot;&gt;int&lt;/span&gt;&lt;/font&gt;" style="text;html=1;strokeColor=none;fillColor=none;spacingLeft=4;spacingRight=4;whiteSpace=wrap;overflow=hidden;rotatable=0;points=[[0,0.5],[1,0.5]];portConstraint=eastwest;" vertex="1" parent="WIoTZI1E3ftE0DfnmjJr-34">
          <mxGeometry y="52" width="162.5" height="26" as="geometry" />
        </mxCell>
        <mxCell id="WIoTZI1E3ftE0DfnmjJr-37" value="&lt;font color=&quot;#99004d&quot;&gt;payment_amount&lt;/font&gt;&lt;span style=&quot;color: rgb(153, 0, 77); white-space: pre;&quot;&gt;	&lt;/span&gt;&lt;font color=&quot;#cc0000&quot;&gt;&lt;span style=&quot;background-color: rgb(255, 255, 153);&quot;&gt;decimal&lt;/span&gt;&lt;/font&gt;" style="text;html=1;strokeColor=none;fillColor=none;spacingLeft=4;spacingRight=4;whiteSpace=wrap;overflow=hidden;rotatable=0;points=[[0,0.5],[1,0.5]];portConstraint=eastwest;" vertex="1" parent="WIoTZI1E3ftE0DfnmjJr-34">
          <mxGeometry y="78" width="162.5" height="26" as="geometry" />
        </mxCell>
        <mxCell id="WIoTZI1E3ftE0DfnmjJr-38" value="&lt;sup&gt;&lt;font style=&quot;font-size: 12px;&quot;&gt;&lt;font color=&quot;#99004d&quot;&gt;payment_date&amp;nbsp;&lt;/font&gt;&lt;span style=&quot;color: rgb(153, 0, 77); white-space: pre;&quot;&gt;	&lt;/span&gt;&lt;font color=&quot;#99004d&quot;&gt;&lt;span style=&quot;white-space: pre;&quot;&gt;&amp;nbsp;     &lt;/span&gt;&lt;/font&gt;&lt;font color=&quot;#cc0000&quot;&gt;&lt;span style=&quot;background-color: rgb(255, 255, 153);&quot;&gt;date&lt;/span&gt;&lt;/font&gt;&lt;/font&gt;&lt;/sup&gt;" style="text;html=1;strokeColor=none;fillColor=none;spacingLeft=4;spacingRight=4;whiteSpace=wrap;overflow=hidden;rotatable=0;points=[[0,0.5],[1,0.5]];portConstraint=eastwest;" vertex="1" parent="WIoTZI1E3ftE0DfnmjJr-34">
          <mxGeometry y="104" width="162.5" height="26" as="geometry" />
        </mxCell>
        <mxCell id="WIoTZI1E3ftE0DfnmjJr-44" style="edgeStyle=orthogonalEdgeStyle;rounded=0;orthogonalLoop=1;jettySize=auto;html=1;shape=link;dashed=1;entryX=1.004;entryY=0.756;entryDx=0;entryDy=0;entryPerimeter=0;fillColor=#d5e8d4;gradientColor=#97d077;strokeColor=#82b366;" edge="1" parent="1" target="21ea969265ad0168-7">
          <mxGeometry relative="1" as="geometry">
            <mxPoint x="600" y="409" as="sourcePoint" />
            <mxPoint x="440" y="170" as="targetPoint" />
            <Array as="points">
              <mxPoint x="600" y="396" />
              <mxPoint x="490" y="396" />
              <mxPoint x="490" y="110" />
              <mxPoint x="440" y="110" />
              <mxPoint x="440" y="113" />
              <mxPoint x="311" y="113" />
            </Array>
          </mxGeometry>
        </mxCell>
        <mxCell id="WIoTZI1E3ftE0DfnmjJr-45" style="edgeStyle=orthogonalEdgeStyle;rounded=0;orthogonalLoop=1;jettySize=auto;html=1;shape=link;dashed=1;dashPattern=8 8;width=4;fillColor=#d80073;strokeColor=#A50040;" edge="1" parent="1" target="21ea969265ad0168-11">
          <mxGeometry relative="1" as="geometry">
            <mxPoint x="560" y="430" as="sourcePoint" />
            <mxPoint x="560" y="163" as="targetPoint" />
            <Array as="points">
              <mxPoint x="560" y="420" />
              <mxPoint x="510" y="420" />
              <mxPoint x="510" y="110" />
            </Array>
          </mxGeometry>
        </mxCell>
        <mxCell id="WIoTZI1E3ftE0DfnmjJr-46" style="edgeStyle=orthogonalEdgeStyle;rounded=0;orthogonalLoop=1;jettySize=auto;html=1;shape=link;dashed=1;dashPattern=8 8;width=4;fillColor=#d80073;strokeColor=#A50040;" edge="1" parent="1">
          <mxGeometry relative="1" as="geometry">
            <mxPoint x="330" y="500" as="sourcePoint" />
            <mxPoint x="520" y="110" as="targetPoint" />
            <Array as="points">
              <mxPoint x="330" y="490" />
              <mxPoint x="310" y="490" />
              <mxPoint x="310" y="180" />
              <mxPoint x="520" y="180" />
            </Array>
          </mxGeometry>
        </mxCell>
      </root>
    </mxGraphModel>
  </diagram>
</mxfile>
